<!-- This icon is from Material Design Icons by Google -->
<?xml version="1.0" encoding="UTF-8" standalone="no"?>
<svg
   width="32"
   height="32"
   viewBox="0 0 24 24"
   version="1.1"
   id="svg1"
   sodipodi:docname="chat.svg"
   inkscape:version="1.4 (e7c3feb100, 2024-10-09)"
   xmlns:inkscape="http://www.inkscape.org/namespaces/inkscape"
   xmlns:sodipodi="http://sodipodi.sourceforge.net/DTD/sodipodi-0.dtd"
   xmlns="http://www.w3.org/2000/svg"
   xmlns:svg="http://www.w3.org/2000/svg">
  <defs
     id="defs1" />
  <sodipodi:namedview
     id="namedview1"
     pagecolor="#ffffff"
     bordercolor="#666666"
     borderopacity="1.0"
     inkscape:showpageshadow="2"
     inkscape:pageopacity="0.0"
     inkscape:pagecheckerboard="0"
     inkscape:deskcolor="#d1d1d1"
     inkscape:zoom="6.5625"
     inkscape:cx="16"
     inkscape:cy="16"
     inkscape:window-width="1249"
     inkscape:window-height="1054"
     inkscape:window-x="0"
     inkscape:window-y="0"
     inkscape:window-maximized="1"
     inkscape:current-layer="svg1" />
  <path
     fill="currentColor"
     d="M12 3C6.5 3 2 6.58 2 11a7.22 7.22 0 0 0 2.75 5.5c0 .6-.42 2.17-2.75 4.5c2.37-.11 4.64-1 6.47-2.5c1.14.33 2.34.5 3.53.5c5.5 0 10-3.58 10-8s-4.5-8-10-8m0 14c-4.42 0-8-2.69-8-6s3.58-6 8-6s8 2.69 8 6s-3.58 6-8 6m5-5v-2h-2v2zm-4 0v-2h-2v2zm-4 0v-2H7v2z"
     id="path1"
     style="fill:#e072b6;fill-opacity:1" />
</svg>
